<svg id="Capa_1" enable-background="new 0 0 512 512" height="512" viewBox="0 0 512 512" width="512" xmlns="http://www.w3.org/2000/svg"><g><g><path d="m412.967 162.673-31.82-31.82-31.82-31.82-31.819-10.607-317.508 317.508 21.213 21.213 31.82-10.606-10.607 31.819 10.607 10.607 10.607 10.607 31.819-10.607-10.606 31.82 21.213 21.213 317.508-317.508z" fill="#fabe2c"/><path d="m95.459 458.967-10.606 31.82 21.213 21.213 317.508-317.508-10.607-31.819-31.82-31.82-328.114 328.114 10.607 10.607z" fill="#ff9100"/><path d="m-38.332 253.393h479.023v30h-479.023z" fill="#ff9100" transform="matrix(.707 -.707 .707 .707 -130.858 220.867)"/><path d="m4.095 295.82h479.023v30h-479.023z" fill="#ff641a" transform="matrix(.707 -.707 .707 .707 -148.432 263.293)"/><path d="m498.82 55.607-21.213-21.213-21.214-21.214c-17.574-17.574-46.066-17.574-63.64 0l-75.246 75.246 53.033 53.033 53.033 53.033 75.246-75.246c17.574-17.573 17.574-46.066.001-63.639z" fill="#704c55"/><path d="m498.82 119.246c17.574-17.574 17.574-46.066 0-63.64l-21.213-21.213-107.066 107.066 53.033 53.033z" fill="#5a344b"/></g><g><path d="m512 405.934-296.294-296.294-24.75 3.536-38.89 38.89-37.123 37.123-5.303 26.517 296.294 296.294 21.213-21.213-10.606-31.82 31.819 10.607 10.607-10.607 10.607-10.607-10.607-31.819 31.82 10.606z" fill="#fed843"/><path d="m458.967 416.541 31.82 10.606 21.213-21.213-296.294-296.294-24.75 3.536-38.89 38.89 306.901 306.901 10.607-10.607z" fill="#fabe2c"/><path d="m306.426 54.488h30v449.024h-30z" fill="#ff9100" transform="matrix(.707 -.707 .707 .707 -103.139 309)"/><path d="m264 96.915h30v449.024h-30z" fill="#fabe2c" transform="matrix(.707 -.707 .707 .707 -145.566 291.426)"/><path d="m136 247.215v-24.839c0-20.874 9.392-41.387 26.816-59.56.611-.637 1.037-1.325 1.669-1.956l51.22-51.22-96.459-96.46c-17.574-17.574-46.066-17.574-63.64 0l-21.213 21.213-21.213 21.214c-17.574 17.574-17.574 46.066 0 63.64l36.474 36.474c16.873 16.873 26.353 39.758 26.353 63.621v27.863c0 16.713 13.664 29.995 29.997 30.018 16.531-.022 29.986-13.487 29.996-30.008z" fill="#9b786f"/><path d="m215.706 109.64-96.46-96.46c-17.574-17.574-46.066-17.574-63.64 0l-21.213 21.213 128.423 128.423c.611-.637 1.037-1.325 1.669-1.956z" fill="#704c55"/></g></g></svg>